<?xml version="1.0" encoding="UTF-8" standalone="no"?>
<svg width="1205" height="638" viewBox="3 3 673 358" version="1.1" xmlns="http://www.w3.org/2000/svg">
<g xmlns="http://www.w3.org/2000/svg" stroke="#000" id="g260">
    <g fill="#fdff8c" id="P">
      <rect x="540" y="75" width="30" height="30" id="rect242"/>
      <rect x="575" y="75" width="30" height="30" id="rect244"/>
      <rect x="575" y="145" width="30" height="30" id="rect250"/>
      <rect x="505" y="75" width="30" height="30" id="rect252"/>
      <rect x="540" y="110" width="30" height="30" id="rect254"/>
      <rect x="575" y="110" width="30" height="30" id="rect256"/>
      <rect x="645" y="145" width="30" height="30" id="rect4"/>
      <rect x="645" y="180" width="30" height="30" id="rect6"/>
      <rect x="645" y="215" width="30" height="30" id="rect8"/>
      <rect x="645" y="75" width="30" height="30" id="rect10"/>
      <rect x="645" y="110" width="30" height="30" id="rect12"/>
      <rect x="645" y="250" width="30" height="30" id="rect76"/>
      <rect x="505" y="145" width="30" height="30" id="rect18"/>
      <rect x="540" y="145" width="30" height="30" id="rect20"/>
      <rect x="540" y="180" width="30" height="30" id="rect22"/>
      <rect x="575" y="180" width="30" height="30" id="rect24"/>
      <rect x="470" y="75" width="30" height="30" id="rect28"/>
      <rect x="505" y="110" width="30" height="30" id="rect30Si"/>
      <rect x="470" y="145" width="30" height="30" id="rect42"/>
      <rect x="470" y="180" width="30" height="30" id="rect44"/>
      <rect x="470" y="215" width="30" height="30" id="rect46"/>
      <rect x="505" y="180" width="30" height="30" id="rect48"/>
      <rect x="505" y="215" width="30" height="30" id="rect50"/>
      <rect x="540" y="215" width="30" height="30" id="rect52"/>
      <rect x="575" y="215" width="30" height="30" id="rect54"/>
      <rect x="470" y="110" width="30" height="30" id="rect56"/>
      <rect x="470" y="250" width="30" height="30" id="rect66"/>
      <rect x="505" y="250" width="30" height="30" id="rect68"/>
      <rect x="540" y="250" width="30" height="30" id="rect70"/>
      <rect x="575" y="250" width="30" height="30" id="rect72"/>
      <rect x="610" y="75" width="30" height="30" id="rect246"/>
      <rect x="610" y="110" width="30" height="30" id="rect248"/>
      <rect x="610" y="145" width="30" height="30" id="rect238"/>
      <rect x="610" y="180" width="30" height="30" id="rect240"/>
      <rect x="610" y="215" width="30" height="30" id="rect26At"/>
      <rect x="610" y="250" width="30" height="30" id="rect74"/>
    </g>
    <g fill="#9bff99" id="F">
      <rect x="155" y="330" width="30" height="30" id="rect82"/>
      <rect x="190" y="330" width="30" height="30" id="rect84"/>
      <rect x="225" y="330" width="30" height="30" id="rect86"/>
      <rect x="260" y="330" width="30" height="30" id="rect88"/>
      <rect x="295" y="330" width="30" height="30" id="rect90"/>
      <rect x="330" y="330" width="30" height="30" id="rect92"/>
      <rect x="365" y="330" width="30" height="30" id="rect94"/>
      <rect x="400" y="330" width="30" height="30" id="rect96"/>
      <rect x="435" y="330" width="30" height="30" id="rect98"/>
      <rect x="470" y="330" width="30" height="30" id="rect100"/>
      <rect x="505" y="330" width="30" height="30" id="rect102"/>
      <rect x="540" y="330" width="30" height="30" id="rect104"/>
      <rect x="575" y="330" width="30" height="30" id="rect106"/>
      <rect x="120" y="330" width="30" height="30" id="rect108"/>
      <rect x="155" y="295" width="30" height="30" id="rect114"/>
      <rect x="190" y="295" width="30" height="30" id="rect116"/>
      <rect x="225" y="295" width="30" height="30" id="rect118"/>
      <rect x="260" y="295" width="30" height="30" id="rect120"/>
      <rect x="295" y="295" width="30" height="30" id="rect122"/>
      <rect x="330" y="295" width="30" height="30" id="rect124"/>
      <rect x="365" y="295" width="30" height="30" id="rect126"/>
      <rect x="400" y="295" width="30" height="30" id="rect128"/>
      <rect x="435" y="295" width="30" height="30" id="rect130"/>
      <rect x="470" y="295" width="30" height="30" id="rect132"/>
      <rect x="505" y="295" width="30" height="30" id="rect134"/>
      <rect x="540" y="295" width="30" height="30" id="rect136"/>
      <rect x="575" y="295" width="30" height="30" id="rect138"/>
      <rect x="120" y="295" width="30" height="30" id="rect140"/>
    </g>
    <g fill="#99ccff" id="D">
      <rect x="435" y="145" width="30" height="30" id="rect34Zn"/>
      <rect x="435" y="180" width="30" height="30" id="rect36"/>
      <rect x="435" y="215" width="30" height="30" id="rect38"/>
      <rect x="435" y="250" width="30" height="30" id="rect40Cn"/>
      <rect x="330" y="250" width="30" height="30" id="rect60"/>
      <rect x="365" y="250" width="30" height="30" id="rect62"/>
      <rect x="400" y="250" width="30" height="30" id="rect64"/>
      <rect x="120" y="145" width="30" height="30" id="rect144"/>
      <rect x="120" y="180" width="30" height="30" id="rect146"/>
      <rect x="155" y="145" width="30" height="30" id="rect148"/>
      <rect x="155" y="180" width="30" height="30" id="rect150"/>
      <rect x="155" y="215" width="30" height="30" id="rect152"/>
      <rect x="155" y="250" width="30" height="30" id="rect154"/>
      <rect x="190" y="145" width="30" height="30" id="rect156"/>
      <rect x="190" y="180" width="30" height="30" id="rect158"/>
      <rect x="190" y="215" width="30" height="30" id="rect160"/>
      <rect x="190" y="250" width="30" height="30" id="rect162"/>
      <rect x="225" y="145" width="30" height="30" id="rect164"/>
      <rect x="225" y="180" width="30" height="30" id="rect166"/>
      <rect x="225" y="215" width="30" height="30" id="rect168"/>
      <rect x="225" y="250" width="30" height="30" id="rect170"/>
      <rect x="260" y="145" width="30" height="30" id="rect172"/>
      <rect x="260" y="180" width="30" height="30" id="rect174"/>
      <rect x="260" y="215" width="30" height="30" id="rect176"/>
      <rect x="260" y="250" width="30" height="30" id="rect178"/>
      <rect x="295" y="145" width="30" height="30" id="rect180"/>
      <rect x="295" y="180" width="30" height="30" id="rect182"/>
      <rect x="295" y="215" width="30" height="30" id="rect184"/>
      <rect x="295" y="250" width="30" height="30" id="rect186"/>
      <rect x="330" y="145" width="30" height="30" id="rect188"/>
      <rect x="330" y="180" width="30" height="30" id="rect190"/>
      <rect x="330" y="215" width="30" height="30" id="rect192"/>
      <rect x="365" y="145" width="30" height="30" id="rect194"/>
      <rect x="365" y="180" width="30" height="30" id="rect196"/>
      <rect x="365" y="215" width="30" height="30" id="rect198"/>
      <rect x="400" y="145" width="30" height="30" id="rect200"/>
      <rect x="400" y="180" width="30" height="30" id="rect202"/>
      <rect x="400" y="215" width="30" height="30" id="rect204"/>
      <rect x="120" y="250" width="30" height="30" id="rect80"/>
      <rect x="120" y="215" width="30" height="30" id="rect112"/>
    </g>
    <g fill="#ff9999" id="S">
      <rect x="40" y="40" width="30" height="30" id="rect236"/>
      <rect x="40" y="75" width="30" height="30" id="rect208"/>
      <rect x="40" y="110" width="30" height="30" id="rect210"/>
      <rect x="40" y="145" width="30" height="30" id="rect212"/>
      <rect x="40" y="180" width="30" height="30" id="rect214"/>
      <rect x="40" y="215" width="30" height="30" id="rect216"/>
      <rect x="40" y="250" width="30" height="30" id="rect218"/>
      <rect x="75" y="75" width="30" height="30" id="rect222"/>
      <rect x="75" y="110" width="30" height="30" id="rect224"/>
      <rect x="75" y="145" width="30" height="30" id="rect226"/>
      <rect x="75" y="180" width="30" height="30" id="rect228"/>
      <rect x="75" y="215" width="30" height="30" id="rect230"/>
      <rect x="75" y="250" width="30" height="30" id="rect232"/>
      <rect x="645" y="40" width="30" height="30" id="rect14"/>
    </g>
  </g><path d="M42.71 13.96V16.8H38.14v2.11h4.57v2.84l6.74-3.9ZM19.11 36.77l-2.85-.01 3.9 6.74 3.89-6.74H21.21V32.2H19.11Z"/>
<g font-family="Noto Sans" font-size="9" text-anchor="middle">
<text x="21.5" y="20">Group</text>
<text x="21.5" y="31">Period</text>
<g font-size="14">
<g transform="translate(20)">
<text y="58">1</text>
<text y="93">2</text>
<text y="128">3</text>
<text y="163">4</text>
<text y="198">5</text>
<text y="233">6</text>
<text y="268">7</text>
</g>
<g transform="translate(0,22)">
<g transform="translate(55)">
<text>1</text>
<text y="32">1<tspan x="0" dy="11.5">H</tspan></text>
<text y="67">3<tspan x="0" dy="11.5">Li</tspan></text>
<text y="102">11<tspan x="0" dy="11.5">Na</tspan></text>
<text y="137">19<tspan x="0" dy="11.5">K</tspan></text>
<text y="172">37<tspan x="0" dy="11.5">Rb</tspan></text>
<text y="207">55<tspan x="0" dy="11.5">Cs</tspan></text>
<text y="242">87<tspan x="0" dy="11.5">Fr</tspan></text>
</g>
<g transform="translate(90)">
<text>2</text>
<text y="67">4<tspan x="0" dy="11.5">Be</tspan></text>
<text y="102">12<tspan x="0" dy="11.5">Mg</tspan></text>
<text y="137">20<tspan x="0" dy="11.5">Ca</tspan></text>
<text y="172">38<tspan x="0" dy="11.5">Sr</tspan></text>
<text y="207">56<tspan x="0" dy="11.5">Ba</tspan></text>
<text y="242">88<tspan x="0" dy="11.5">Ra</tspan></text>
</g>
<g transform="translate(112)">
<text y="208">*</text>
<text y="243">*<tspan x="0" dy="12">*</tspan></text>
<text y="288">*</text>
<text y="323">*<tspan x="0" dy="12">*</tspan></text>
</g>
<g transform="translate(135)">
<text>3</text>
<text y="137">21<tspan x="0" dy="11.5">Sc</tspan></text>
<text y="172">39<tspan x="0" dy="11.5">Y</tspan></text>
<text y="207">71<tspan x="0" dy="11.5">Lu</tspan></text>
<text y="242">103<tspan x="0" dy="11.5">Lr</tspan></text>
<text y="287">57<tspan x="0" dy="11.5">La</tspan></text>
<text y="322">89<tspan x="0" dy="11.5">Ac</tspan></text>
</g>
<g transform="translate(170)">
<text>4</text>
<text y="137">22<tspan x="0" dy="11.5">Ti</tspan></text>
<text y="172">40<tspan x="0" dy="11.5">Zr</tspan></text>
<text y="207">72<tspan x="0" dy="11.5">Hf</tspan></text>
<text y="242">104<tspan x="0" dy="11.5">Rf</tspan></text>
<text y="287">58<tspan x="0" dy="11.5">Ce</tspan></text>
<text y="322">90<tspan x="0" dy="11.5">Th</tspan></text>
</g>
<g transform="translate(205)">
<text>5</text>
<text y="137">23<tspan x="0" dy="11.5">V</tspan></text>
<text y="172">41<tspan x="0" dy="11.5">Nb</tspan></text>
<text y="207">73<tspan x="0" dy="11.5">Ta</tspan></text>
<text y="242">105<tspan x="0" dy="11.5">Db</tspan></text>
<text y="287">59<tspan x="0" dy="11.5">Pr</tspan></text>
<text y="322">91<tspan x="0" dy="11.5">Pa</tspan></text>
</g>
<g transform="translate(240)">
<text>6</text>
<text y="137">24<tspan x="0" dy="11.5">Cr</tspan></text>
<text y="172">42<tspan x="0" dy="11.5">Mo</tspan></text>
<text y="207">74<tspan x="0" dy="11.5">W</tspan></text>
<text y="242">106<tspan x="0" dy="11.5">Sg</tspan></text>
<text y="287">60<tspan x="0" dy="11.5">Nd</tspan></text>
<text y="322">92<tspan x="0" dy="11.5">U</tspan></text>
</g>
<g transform="translate(275)">
<text>7</text>
<text y="137">25<tspan x="0" dy="11.5">Mn</tspan></text>
<text y="172">43<tspan x="0" dy="11.5">Tc</tspan></text>
<text y="207">75<tspan x="0" dy="11.5">Re</tspan></text>
<text y="242">107<tspan x="0" dy="11.5">Bh</tspan></text>
<text y="287">61<tspan x="0" dy="11.5">Pm</tspan></text>
<text y="322">93<tspan x="0" dy="11.5">Np</tspan></text>
</g>
<g transform="translate(310)">
<text>8</text>
<text y="137">26<tspan x="0" dy="11.5">Fe</tspan></text>
<text y="172">44<tspan x="0" dy="11.5">Ru</tspan></text>
<text y="207">76<tspan x="0" dy="11.5">Os</tspan></text>
<text y="242">108<tspan x="0" dy="11.5">Hs</tspan></text>
<text y="287">62<tspan x="0" dy="11.5">Sm</tspan></text>
<text y="322">94<tspan x="0" dy="11.5">Pu</tspan></text>
</g>
<g transform="translate(345)">
<text>9</text>
<text y="137">27<tspan x="0" dy="11.5">Co</tspan></text>
<text y="172">45<tspan x="0" dy="11.5">Rh</tspan></text>
<text y="207">77<tspan x="0" dy="11.5">Ir</tspan></text>
<text y="242">109<tspan x="0" dy="11.5">Mt</tspan></text>
<text y="287">63<tspan x="0" dy="11.5">Eu</tspan></text>
<text y="322">95<tspan x="0" dy="11.5">Am</tspan></text>
</g>
<g transform="translate(380)">
<text>10</text>
<text y="137">28<tspan x="0" dy="11.5">Ni</tspan></text>
<text y="172">46<tspan x="0" dy="11.5">Pd</tspan></text>
<text y="207">78<tspan x="0" dy="11.5">Pt</tspan></text>
<text y="242">110<tspan x="0" dy="11.5">Ds</tspan></text>
<text y="287">64<tspan x="0" dy="11.5">Gd</tspan></text>
<text y="322">96<tspan x="0" dy="11.5">Cm</tspan></text>
</g>
<g transform="translate(415)">
<text>11</text>
<text y="137">29<tspan x="0" dy="11.5">Cu</tspan></text>
<text y="172">47<tspan x="0" dy="11.5">Ag</tspan></text>
<text y="207">79<tspan x="0" dy="11.5">Au</tspan></text>
<text y="242">111<tspan x="0" dy="11.5">Rg</tspan></text>
<text y="287">65<tspan x="0" dy="11.5">Tb</tspan></text>
<text y="322">97<tspan x="0" dy="11.5">Bk</tspan></text>
</g>
<g transform="translate(450)">
<text>12</text>
<text y="137">30<tspan x="0" dy="11.5">Zn</tspan></text>
<text y="172">48<tspan x="0" dy="11.5">Cd</tspan></text>
<text y="207">80<tspan x="0" dy="11.5">Hg</tspan></text>
<text y="242">112<tspan x="0" dy="11.5">Cn</tspan></text>
<text y="287">66<tspan x="0" dy="11.5">Dy</tspan></text>
<text y="322">98<tspan x="0" dy="11.5">Cf</tspan></text>
</g>
<g transform="translate(485)">
<text>13</text>
<text y="67">5<tspan x="0" dy="11.5">B</tspan></text>
<text y="102">13<tspan x="0" dy="11.5">Al</tspan></text>
<text y="137">31<tspan x="0" dy="11.5">Ga</tspan></text>
<text y="172">49<tspan x="0" dy="11.5">In</tspan></text>
<text y="207">81<tspan x="0" dy="11.5">Tl</tspan></text>
<text y="242">113<tspan x="0" dy="11.5">Nh</tspan></text>
<text y="287">67<tspan x="0" dy="11.5">Ho</tspan></text>
<text y="322">99<tspan x="0" dy="11.5">Es</tspan></text>
</g>
<g transform="translate(520)">
<text>14</text>
<text y="67">6<tspan x="0" dy="11.5">C</tspan></text>
<text y="102">14<tspan x="0" dy="11.5">Si</tspan></text>
<text y="137">32<tspan x="0" dy="11.5">Ge</tspan></text>
<text y="172">50<tspan x="0" dy="11.5">Sn</tspan></text>
<text y="207">82<tspan x="0" dy="11.5">Pb</tspan></text>
<text y="242">114<tspan x="0" dy="11.5">Fl</tspan></text>
<text y="287">68<tspan x="0" dy="11.5">Er</tspan></text>
<text y="322">100<tspan x="0" dy="11.5">Fm</tspan></text>
</g>
<g transform="translate(555)">
<text>15</text>
<text y="67">7<tspan x="0" dy="11.5">N</tspan></text>
<text y="102">15<tspan x="0" dy="11.5">P</tspan></text>
<text y="137">33<tspan x="0" dy="11.5">As</tspan></text>
<text y="172">51<tspan x="0" dy="11.5">Sb</tspan></text>
<text y="207">83<tspan x="0" dy="11.5">Bi</tspan></text>
<text y="242">115<tspan x="0" dy="11.5">Mc</tspan></text>
<text y="287">69<tspan x="0" dy="11.5">Tm</tspan></text>
<text y="322">101<tspan x="0" dy="11.5">Md</tspan></text>
</g>
<g transform="translate(590)">
<text>16</text>
<text y="67">8<tspan x="0" dy="11.5">O</tspan></text>
<text y="102">16<tspan x="0" dy="11.5">S</tspan></text>
<text y="137">34<tspan x="0" dy="11.5">Se</tspan></text>
<text y="172">52<tspan x="0" dy="11.5">Te</tspan></text>
<text y="207">84<tspan x="0" dy="11.5">Po</tspan></text>
<text y="242">116<tspan x="0" dy="11.5">Lv</tspan></text>
<text y="287">70<tspan x="0" dy="11.5">Yb</tspan></text>
<text y="322">102<tspan x="0" dy="11.5">No</tspan></text>
</g>
<g transform="translate(625)">
<text>17</text>
<text y="67">9<tspan x="0" dy="11.5">F</tspan></text>
<text y="102">17<tspan x="0" dy="11.5">Cl</tspan></text>
<text y="137">35<tspan x="0" dy="11.5">Br</tspan></text>
<text y="172">53<tspan x="0" dy="11.5">I</tspan></text>
<text y="207">85<tspan x="0" dy="11.5">At</tspan></text>
<text y="242">117<tspan x="0" dy="11.5">Ts</tspan></text>
</g>
<g transform="translate(660)">
<text>18</text>
<text y="32">2<tspan x="0" dy="11.5">He</tspan></text>
<text y="67">10<tspan x="0" dy="11.5">Ne</tspan></text>
<text y="102">18<tspan x="0" dy="11.5">Ar</tspan></text>
<text y="137">36<tspan x="0" dy="11.5">Kr</tspan></text>
<text y="172">54<tspan x="0" dy="11.5">Xe</tspan></text>
<text y="207">86<tspan x="0" dy="11.5">Rn</tspan></text>
<text y="242">118<tspan x="0" dy="11.5">Og</tspan></text>
</g>
</g>
</g>
</g>
</svg>